<svg xmlns="http://www.w3.org/2000/svg" width="1024" height="1024" viewBox="0 0 1024 1024" version="1.1"><path d="M 224 560 L 224 704 240 704 L 256 704 256 720 L 256 736 512 736 L 768 736 768 720 L 768 704 784 704 L 800 704 800 560 L 800 416 784 416 L 768 416 768 544 L 768 672 752 672 L 736 672 736 688 L 736 704 512 704 L 288 704 288 688 L 288 672 272 672 L 256 672 256 544 L 256 416 240 416 L 224 416 224 560" stroke="none" fill="#ff0000" fill-rule="evenodd"/><path d="M 288 272 L 288 288 272 288 L 256 288 256 304 L 256 320 240 320 L 224 320 224 336 L 224 352 208 352 L 192 352 192 528 L 192 704 208 704 L 224 704 224 720 L 224 736 240 736 L 256 736 256 752 L 256 768 512 768 L 768 768 768 752 L 768 736 784 736 L 800 736 800 720 L 800 704 816 704 L 832 704 832 528 L 832 352 816 352 L 800 352 800 336 L 800 320 784 320 L 768 320 768 304 L 768 288 752 288 L 736 288 736 272 L 736 256 704 256 L 672 256 672 272 L 672 288 656 288 L 640 288 640 304 L 640 320 512 320 L 384 320 384 304 L 384 288 368 288 L 352 288 352 272 L 352 256 320 256 L 288 256 288 272 M 288 304 L 288 320 272 320 L 256 320 256 336 L 256 352 240 352 L 224 352 224 528 L 224 704 240 704 L 256 704 256 720 L 256 736 512 736 L 768 736 768 720 L 768 704 784 704 L 800 704 800 528 L 800 352 784 352 L 768 352 768 336 L 768 320 752 320 L 736 320 736 304 L 736 288 704 288 L 672 288 672 304 L 672 320 656 320 L 640 320 640 336 L 640 352 512 352 L 384 352 384 336 L 384 320 368 320 L 352 320 352 304 L 352 288 320 288 L 288 288 288 304 M 288 400 L 288 416 272 416 L 256 416 256 544 L 256 672 272 672 L 288 672 288 688 L 288 704 512 704 L 736 704 736 688 L 736 672 752 672 L 768 672 768 544 L 768 416 752 416 L 736 416 736 400 L 736 384 512 384 L 288 384 288 400 M 288 544 L 288 672 512 672 L 736 672 736 544 L 736 416 512 416 L 288 416 288 544 M 320 496 L 320 512 336 512 L 352 512 352 496 L 352 480 336 480 L 320 480 320 496 M 384 496 L 384 512 400 512 L 416 512 416 496 L 416 480 400 480 L 384 480 384 496 M 448 496 L 448 512 464 512 L 480 512 480 496 L 480 480 464 480 L 448 480 448 496 M 512 496 L 512 512 528 512 L 544 512 544 496 L 544 480 528 480 L 512 480 512 496 M 576 496 L 576 512 592 512 L 608 512 608 496 L 608 480 592 480 L 576 480 576 496 M 640 496 L 640 512 656 512 L 672 512 672 496 L 672 480 656 480 L 640 480 640 496 M 320 560 L 320 576 336 576 L 352 576 352 560 L 352 544 336 544 L 320 544 320 560 M 384 560 L 384 576 400 576 L 416 576 416 560 L 416 544 400 544 L 384 544 384 560 M 448 560 L 448 576 464 576 L 480 576 480 560 L 480 544 464 544 L 448 544 448 560 M 512 560 L 512 576 528 576 L 544 576 544 560 L 544 544 528 544 L 512 544 512 560 M 576 560 L 576 576 592 576 L 608 576 608 560 L 608 544 592 544 L 576 544 576 560 M 640 560 L 640 576 656 576 L 672 576 672 560 L 672 544 656 544 L 640 544 640 560 M 320 624 L 320 640 336 640 L 352 640 352 624 L 352 608 336 608 L 320 608 320 624 M 384 624 L 384 640 400 640 L 416 640 416 624 L 416 608 400 608 L 384 608 384 624 M 448 624 L 448 640 464 640 L 480 640 480 624 L 480 608 464 608 L 448 608 448 624 M 512 624 L 512 640 528 640 L 544 640 544 624 L 544 608 528 608 L 512 608 512 624 M 576 624 L 576 640 592 640 L 608 640 608 624 L 608 608 592 608 L 576 608 576 624 M 640 624 L 640 640 656 640 L 672 640 672 624 L 672 608 656 608 L 640 608 640 624" stroke="none" fill="#000000" fill-rule="evenodd"/><path d="M 288 304 L 288 320 272 320 L 256 320 256 336 L 256 352 240 352 L 224 352 224 384 L 224 416 256 416 L 288 416 288 400 L 288 384 512 384 L 736 384 736 400 L 736 416 768 416 L 800 416 800 384 L 800 352 784 352 L 768 352 768 336 L 768 320 752 320 L 736 320 736 304 L 736 288 704 288 L 672 288 672 304 L 672 320 656 320 L 640 320 640 336 L 640 352 512 352 L 384 352 384 336 L 384 320 368 320 L 352 320 352 304 L 352 288 320 288 L 288 288 288 304" stroke="none" fill="#bc0000" fill-rule="evenodd"/><path d="M 288 272 L 288 288 272 288 L 256 288 256 304 L 256 320 240 320 L 224 320 224 336 L 224 352 208 352 L 192 352 192 528 L 192 704 208 704 L 224 704 224 720 L 224 736 240 736 L 256 736 256 752 L 256 768 512 768 L 768 768 768 752 L 768 736 784 736 L 800 736 800 720 L 800 704 816 704 L 832 704 832 528 L 832 352 816 352 L 800 352 800 336 L 800 320 784 320 L 768 320 768 304 L 768 288 752 288 L 736 288 736 272 L 736 256 704 256 L 672 256 672 272 L 672 288 656 288 L 640 288 640 304 L 640 320 512 320 L 384 320 384 304 L 384 288 368 288 L 352 288 352 272 L 352 256 320 256 L 288 256 288 272 M 288 304 L 288 320 272 320 L 256 320 256 336 L 256 352 240 352 L 224 352 224 528 L 224 704 240 704 L 256 704 256 720 L 256 736 512 736 L 768 736 768 720 L 768 704 784 704 L 800 704 800 528 L 800 352 784 352 L 768 352 768 336 L 768 320 752 320 L 736 320 736 304 L 736 288 704 288 L 672 288 672 304 L 672 320 656 320 L 640 320 640 336 L 640 352 512 352 L 384 352 384 336 L 384 320 368 320 L 352 320 352 304 L 352 288 320 288 L 288 288 288 304 M 288 400 L 288 416 272 416 L 256 416 256 544 L 256 672 272 672 L 288 672 288 688 L 288 704 512 704 L 736 704 736 688 L 736 672 752 672 L 768 672 768 544 L 768 416 752 416 L 736 416 736 400 L 736 384 512 384 L 288 384 288 400 M 288 544 L 288 672 512 672 L 736 672 736 544 L 736 416 512 416 L 288 416 288 544 M 320 496 L 320 512 336 512 L 352 512 352 496 L 352 480 336 480 L 320 480 320 496 M 384 496 L 384 512 400 512 L 416 512 416 496 L 416 480 400 480 L 384 480 384 496 M 448 496 L 448 512 464 512 L 480 512 480 496 L 480 480 464 480 L 448 480 448 496 M 512 496 L 512 512 528 512 L 544 512 544 496 L 544 480 528 480 L 512 480 512 496 M 576 496 L 576 512 592 512 L 608 512 608 496 L 608 480 592 480 L 576 480 576 496 M 640 496 L 640 512 656 512 L 672 512 672 496 L 672 480 656 480 L 640 480 640 496 M 320 560 L 320 576 336 576 L 352 576 352 560 L 352 544 336 544 L 320 544 320 560 M 384 560 L 384 576 400 576 L 416 576 416 560 L 416 544 400 544 L 384 544 384 560 M 448 560 L 448 576 464 576 L 480 576 480 560 L 480 544 464 544 L 448 544 448 560 M 512 560 L 512 576 528 576 L 544 576 544 560 L 544 544 528 544 L 512 544 512 560 M 576 560 L 576 576 592 576 L 608 576 608 560 L 608 544 592 544 L 576 544 576 560 M 640 560 L 640 576 656 576 L 672 576 672 560 L 672 544 656 544 L 640 544 640 560 M 320 624 L 320 640 336 640 L 352 640 352 624 L 352 608 336 608 L 320 608 320 624 M 384 624 L 384 640 400 640 L 416 640 416 624 L 416 608 400 608 L 384 608 384 624 M 448 624 L 448 640 464 640 L 480 640 480 624 L 480 608 464 608 L 448 608 448 624 M 512 624 L 512 640 528 640 L 544 640 544 624 L 544 608 528 608 L 512 608 512 624 M 576 624 L 576 640 592 640 L 608 640 608 624 L 608 608 592 608 L 576 608 576 624 M 640 624 L 640 640 656 640 L 672 640 672 624 L 672 608 656 608 L 640 608 640 624" stroke="none" fill="#000000" fill-rule="evenodd"/><path d="M 288 544 L 288 672 512 672 L 736 672 736 544 L 736 416 512 416 L 288 416 288 544 M 320 496 L 320 512 336 512 L 352 512 352 496 L 352 480 336 480 L 320 480 320 496 M 384 496 L 384 512 400 512 L 416 512 416 496 L 416 480 400 480 L 384 480 384 496 M 448 496 L 448 512 464 512 L 480 512 480 496 L 480 480 464 480 L 448 480 448 496 M 512 496 L 512 512 528 512 L 544 512 544 496 L 544 480 528 480 L 512 480 512 496 M 576 496 L 576 512 592 512 L 608 512 608 496 L 608 480 592 480 L 576 480 576 496 M 640 496 L 640 512 656 512 L 672 512 672 496 L 672 480 656 480 L 640 480 640 496 M 320 560 L 320 576 336 576 L 352 576 352 560 L 352 544 336 544 L 320 544 320 560 M 384 560 L 384 576 400 576 L 416 576 416 560 L 416 544 400 544 L 384 544 384 560 M 448 560 L 448 576 464 576 L 480 576 480 560 L 480 544 464 544 L 448 544 448 560 M 512 560 L 512 576 528 576 L 544 576 544 560 L 544 544 528 544 L 512 544 512 560 M 576 560 L 576 576 592 576 L 608 576 608 560 L 608 544 592 544 L 576 544 576 560 M 640 560 L 640 576 656 576 L 672 576 672 560 L 672 544 656 544 L 640 544 640 560 M 320 624 L 320 640 336 640 L 352 640 352 624 L 352 608 336 608 L 320 608 320 624 M 384 624 L 384 640 400 640 L 416 640 416 624 L 416 608 400 608 L 384 608 384 624 M 448 624 L 448 640 464 640 L 480 640 480 624 L 480 608 464 608 L 448 608 448 624 M 512 624 L 512 640 528 640 L 544 640 544 624 L 544 608 528 608 L 512 608 512 624 M 576 624 L 576 640 592 640 L 608 640 608 624 L 608 608 592 608 L 576 608 576 624 M 640 624 L 640 640 656 640 L 672 640 672 624 L 672 608 656 608 L 640 608 640 624" stroke="none" fill="#fcf4f4" fill-rule="evenodd"/><path d="" stroke="none" fill="#040404" fill-rule="evenodd"/></svg>